<svg width="41" height="36" viewBox="0 0 41 36" fill="none" xmlns="http://www.w3.org/2000/svg">
<path d="M30.681 35.7092H9.33008C7.73935 35.7073 6.21429 35.0746 5.08948 33.9498C3.96466 32.825 3.33193 31.2999 3.33008 29.7092V21.2822C3.33008 20.7517 3.5407 20.243 3.91577 19.868C4.29084 19.4929 4.79965 19.2822 5.33008 19.2822C5.86051 19.2822 6.36919 19.4929 6.74426 19.868C7.11934 20.243 7.33008 20.7517 7.33008 21.2822V29.7092C7.33008 30.2396 7.5407 30.7483 7.91577 31.1234C8.29084 31.4985 8.79965 31.7092 9.33008 31.7092H30.681C31.2115 31.7092 31.7201 31.4985 32.0952 31.1234C32.4703 30.7483 32.681 30.2396 32.681 29.7092V16.4092C32.681 15.8787 32.8918 15.37 33.2668 14.995C33.6419 14.6199 34.1506 14.4092 34.681 14.4092C35.2115 14.4092 35.7201 14.6199 36.0952 14.995C36.4703 15.37 36.681 15.8787 36.681 16.4092V29.7092C36.6794 31.3 36.0467 32.8252 34.9219 33.95C33.797 35.0749 32.2718 35.7076 30.681 35.7092Z" fill="white"/>
<path d="M34.2153 18.413C32.4221 18.389 30.6851 17.7837 29.2653 16.688C28.0306 17.814 26.4152 18.4303 24.7443 18.413C23.4167 17.3006 21.74 16.691 20.0079 16.691C18.2758 16.691 16.599 17.3006 15.2713 18.413C13.6004 18.4303 11.985 17.814 10.7503 16.688C9.33024 17.7838 7.59295 18.3891 5.7994 18.413C4.869 18.4462 3.94433 18.2545 3.10384 17.8541C2.26335 17.4537 1.53184 16.8564 0.971395 16.113C0.465799 15.3739 0.14606 14.5237 0.0395098 13.6345C-0.0670401 12.7454 0.0426901 11.8437 0.359334 11.006L2.74434 4.11401C3.08426 3.13165 3.72189 2.27967 4.56856 1.67657C5.41523 1.07348 6.42884 0.749257 7.46834 0.749023H32.5444C33.5841 0.749049 34.5978 1.07316 35.4447 1.67627C36.2915 2.27938 36.9294 3.13149 37.2694 4.11401L39.6523 11.006C39.9693 11.8435 40.0794 12.7453 39.973 13.6344C39.8666 14.5236 39.547 15.3739 39.0413 16.113C38.4808 16.8565 37.7491 17.4539 36.9084 17.8543C36.0677 18.2547 35.1429 18.4464 34.2124 18.413M28.9834 11.494C29.3187 11.4939 29.6486 11.5781 29.9428 11.7389C30.2371 11.8996 30.4862 12.1318 30.6673 12.414C31.0572 13.0047 31.582 13.4941 32.1984 13.8419C32.8149 14.1897 33.5052 14.3858 34.2124 14.414C34.5048 14.4422 34.7997 14.4004 35.0728 14.2923C35.346 14.1841 35.5894 14.0127 35.7833 13.792C35.9155 13.5707 35.9928 13.3208 36.0083 13.0634C36.0237 12.806 35.9772 12.5486 35.8724 12.313L33.4893 5.42203C33.4213 5.22552 33.2938 5.0551 33.1245 4.93448C32.9551 4.81386 32.7523 4.74903 32.5444 4.74902H7.46529C7.25753 4.74924 7.055 4.81415 6.88582 4.93475C6.71665 5.05536 6.58926 5.22568 6.52132 5.42203L4.13631 12.313C4.03194 12.5488 3.98564 12.8061 4.0013 13.0635C4.01696 13.3208 4.09422 13.5707 4.2264 13.792C4.42015 14.0126 4.66341 14.184 4.93636 14.2921C5.20931 14.4003 5.5041 14.4421 5.79635 14.414C6.50364 14.3857 7.19407 14.1895 7.81063 13.8418C8.42719 13.494 8.95221 13.0047 9.34237 12.414C9.54844 12.0917 9.84257 11.8352 10.19 11.675C10.5375 11.5148 10.9236 11.4576 11.3026 11.5103C11.6815 11.5629 12.0374 11.7231 12.3281 11.9719C12.6187 12.2207 12.8319 12.5477 12.9423 12.914C13.1148 13.383 13.4353 13.783 13.8553 14.0537C14.2753 14.3243 14.772 14.4508 15.2703 14.414C15.8749 14.4196 16.469 14.2566 16.9862 13.9435C17.5033 13.6303 17.9231 13.1793 18.1983 12.641C18.3602 12.2983 18.6162 12.0085 18.9364 11.8056C19.2565 11.6027 19.6277 11.495 20.0068 11.495C20.3859 11.495 20.7572 11.6027 21.0774 11.8056C21.3975 12.0085 21.6535 12.2983 21.8154 12.641C22.0906 13.1793 22.5103 13.6303 23.0274 13.9435C23.5446 14.2566 24.1388 14.4196 24.7434 14.414C25.2417 14.4508 25.7384 14.3243 26.1584 14.0537C26.5784 13.783 26.8989 13.383 27.0714 12.914C27.1823 12.5485 27.3957 12.2224 27.6861 11.9743C27.9766 11.7262 28.3319 11.5665 28.7103 11.514C28.8014 11.5012 28.8933 11.4949 28.9853 11.495" fill="white"/>
<path d="M24.3274 35.7088H15.7734C15.243 35.7088 14.7343 35.4981 14.3593 35.123C13.9842 34.748 13.7734 34.2393 13.7734 33.7088V25.9518C13.775 24.3428 14.4148 22.8001 15.5524 21.6622C16.6899 20.5242 18.2324 19.884 19.8414 19.8818H20.2574C21.8667 19.8837 23.4095 20.5238 24.5475 21.6617C25.6854 22.7997 26.3255 24.3425 26.3274 25.9518V33.7088C26.3274 34.2393 26.1166 34.748 25.7416 35.123C25.3665 35.4981 24.8578 35.7088 24.3274 35.7088ZM17.7734 31.7088H22.3274V25.9518C22.3266 25.4031 22.1082 24.877 21.7202 24.489C21.3322 24.101 20.8062 23.8826 20.2574 23.8818H19.8414C19.2929 23.8829 18.7672 24.1014 18.3795 24.4894C17.9919 24.8774 17.774 25.4034 17.7734 25.9518V31.7088Z" fill="white"/>
</svg>
