<svg width="40" height="41" viewBox="0 0 40 41" fill="none" xmlns="http://www.w3.org/2000/svg">
<path d="M37.2424 39.2731C36.8152 39.2729 36.3993 39.1359 36.0556 38.8822C35.7119 38.6284 35.4584 38.2713 35.3324 37.8631L33.0734 30.5472C32.9855 30.2633 32.962 29.9634 33.0046 29.6693C33.0472 29.3753 33.1547 29.0944 33.3194 28.8471C35.5743 25.451 36.447 21.3219 35.7594 17.3038C35.0717 13.2857 32.8755 9.68188 29.6196 7.22886C26.3637 4.77583 22.294 3.65881 18.242 4.10606C14.1901 4.5533 10.4619 6.53102 7.81942 9.63511C7.47543 10.0389 6.98514 10.2895 6.45638 10.3318C5.92762 10.3741 5.40369 10.2046 4.9999 9.86063C4.59611 9.51665 4.34554 9.02635 4.30325 8.4976C4.26096 7.96884 4.43045 7.44491 4.77444 7.04111C8.0229 3.22099 12.5883 0.761159 17.5655 0.14939C22.5426 -0.462378 27.5678 0.818606 31.6447 3.73832C35.7216 6.65803 38.5524 11.0032 39.5757 15.9123C40.599 20.8213 39.7402 25.9357 37.1694 30.2411L39.1564 36.6781C39.3126 37.1848 39.2612 37.7328 39.0135 38.2016C38.7657 38.6704 38.342 39.0217 37.8354 39.1781C37.6439 39.2366 37.4447 39.2663 37.2444 39.2662" fill="white"/>
<path d="M20.0045 40.0048C19.8725 40.0048 19.7405 40.0048 19.6045 40.0048C16.3132 39.9381 13.0892 39.0604 10.2182 37.4495C7.34729 35.8386 4.91814 33.5442 3.14614 30.7698C1.37414 27.9954 0.314039 24.8266 0.0597761 21.5445C-0.194487 18.2623 0.364993 14.9681 1.68856 11.9539C1.90232 11.4684 2.30014 11.0877 2.79458 10.8956C3.28902 10.7035 3.83956 10.7156 4.32504 10.9293C4.81051 11.1431 5.19119 11.541 5.38332 12.0354C5.57545 12.5299 5.56327 13.0804 5.34951 13.5659C3.95318 16.728 3.61948 20.2576 4.3984 23.6254C5.17732 26.9933 7.02692 30.018 9.66988 32.2459C12.3128 34.4739 15.6068 35.7851 19.0578 35.983C22.5089 36.181 25.9312 35.255 28.8115 33.3439C29.7575 32.7169 29.7605 32.7198 37.8625 35.3768C38.1173 35.4543 38.354 35.5819 38.5588 35.7521C38.7636 35.9223 38.9324 36.1317 39.0552 36.3679C39.178 36.6042 39.2524 36.8626 39.274 37.128C39.2956 37.3934 39.264 37.6604 39.1811 37.9135C39.0981 38.1665 38.9654 38.4004 38.7909 38.6015C38.6163 38.8026 38.4033 38.9668 38.1645 39.0844C37.9256 39.2021 37.6656 39.2709 37.3998 39.2868C37.134 39.3026 36.8677 39.2653 36.6165 39.1768C34.1975 38.3828 31.5166 37.5249 30.2616 37.1569C27.1646 39.0236 23.6166 40.0094 20.0005 40.0079" fill="white"/>
</svg>
