<svg width="40" height="32" viewBox="0 0 40 32" fill="none" xmlns="http://www.w3.org/2000/svg">
<path d="M35.0625 24.0259H4.93652C4.40609 24.0259 3.89738 23.8155 3.52231 23.4404C3.14724 23.0654 2.93652 22.5563 2.93652 22.0259V2C2.93652 1.46957 3.14724 0.96101 3.52231 0.585938C3.89738 0.210865 4.40609 0 4.93652 0H35.0625C35.5929 0 36.1016 0.210865 36.4767 0.585938C36.8518 0.96101 37.0625 1.46957 37.0625 2V22.0308C37.0625 22.5612 36.8518 23.0702 36.4767 23.4453C36.1016 23.8204 35.5929 24.0308 35.0625 24.0308M6.93652 20.0308H33.0625V4H6.93652V20.0308Z" fill="white"/>
<path d="M37.9997 31.6577H1.9997C1.67504 31.6577 1.35528 31.5785 1.06803 31.4272C0.780774 31.276 0.534659 31.0567 0.350955 30.7891C0.16725 30.5214 0.0514978 30.2131 0.0136438 29.8906C-0.0242101 29.5682 0.016987 29.2414 0.1337 28.9385L3.07071 21.3066C3.21596 20.9296 3.47197 20.6051 3.80506 20.3765C4.13814 20.1478 4.53269 20.0254 4.93671 20.0254H35.0627C35.467 20.0253 35.8618 20.1481 36.1951 20.377C36.5284 20.6058 36.7845 20.9303 36.9297 21.3076L39.8657 28.9395C39.9822 29.2423 40.0232 29.5693 39.9853 29.8916C39.9473 30.2139 39.8315 30.522 39.6479 30.7896C39.4642 31.0571 39.2181 31.276 38.931 31.4272C38.6439 31.5785 38.3242 31.6576 37.9997 31.6577ZM4.91269 27.6577H35.0877L33.6877 24.0254H6.30771L4.91269 27.6577Z" fill="white"/>
</svg>
