<svg width="35" height="39" viewBox="0 0 35 39" fill="none" xmlns="http://www.w3.org/2000/svg">
<path d="M32.9561 39C32.4256 39 31.9169 38.7893 31.5419 38.4142C31.1668 38.0391 30.9561 37.5304 30.9561 37V2C30.9561 1.46957 31.1668 0.960888 31.5419 0.585815C31.9169 0.210743 32.4256 0 32.9561 0C33.4865 0 33.9952 0.210743 34.3703 0.585815C34.7454 0.960888 34.9561 1.46957 34.9561 2V37C34.9561 37.5304 34.7454 38.0391 34.3703 38.4142C33.9952 38.7893 33.4865 39 32.9561 39Z" fill="white"/>
<path d="M22.6367 39.0001C22.1063 39.0001 21.5975 38.7894 21.2225 38.4143C20.8474 38.0392 20.6367 37.5306 20.6367 37.0001V10.2451C20.6367 9.71468 20.8474 9.20601 21.2225 8.83093C21.5975 8.45586 22.1063 8.24512 22.6367 8.24512C23.1672 8.24512 23.6758 8.45586 24.0509 8.83093C24.426 9.20601 24.6367 9.71468 24.6367 10.2451V37.0001C24.6367 37.5306 24.426 38.0392 24.0509 38.4143C23.6758 38.7894 23.1672 39.0001 22.6367 39.0001Z" fill="white"/>
<path d="M12.3174 39C11.7869 39 11.2783 38.7893 10.9032 38.4142C10.5281 38.0391 10.3174 37.5304 10.3174 37V21.7109C10.3174 21.1805 10.5281 20.6718 10.9032 20.2968C11.2783 19.9217 11.7869 19.7109 12.3174 19.7109C12.8478 19.7109 13.3566 19.9217 13.7316 20.2968C14.1067 20.6718 14.3174 21.1805 14.3174 21.7109V37C14.3174 37.5304 14.1067 38.0391 13.7316 38.4142C13.3566 38.7893 12.8478 39 12.3174 39Z" fill="white"/>
<path d="M2 39C1.46957 39 0.960888 38.7893 0.585815 38.4142C0.210743 38.0391 0 37.5304 0 37V30.4609C0 29.9305 0.210743 29.4218 0.585815 29.0468C0.960888 28.6717 1.46957 28.4609 2 28.4609C2.53043 28.4609 3.03911 28.6717 3.41418 29.0468C3.78926 29.4218 4 29.9305 4 30.4609V37C4 37.5304 3.78926 38.0391 3.41418 38.4142C3.03911 38.7893 2.53043 39 2 39Z" fill="white"/>
</svg>
