<svg width="195" height="75" viewBox="0 0 195 75" fill="none" xmlns="http://www.w3.org/2000/svg">
<g style="mix-blend-mode:multiply">
<path d="M97.4662 0L128.927 21.1623L97.4662 42.3246L66.0059 21.1623L97.4662 0Z" fill="white"/>
</g>
<g style="mix-blend-mode:multiply">
<path d="M98.0488 43.7346L128.927 22.5723V53.6103L98.0488 74.7727V43.7346Z" fill="white"/>
</g>
<g style="mix-blend-mode:multiply">
<path d="M96.8838 43.7346L66.006 22.5723V53.6103L96.8838 74.7727V43.7346Z" fill="white"/>
</g>
<path d="M8.79737 42.6984H2.54259L2.50869 40.071H8.18715C9.12508 40.071 9.94436 39.9128 10.645 39.5964C11.3456 39.28 11.888 38.828 12.2722 38.2404C12.6678 37.6415 12.8655 36.9295 12.8655 36.1046C12.8655 35.2006 12.6904 34.466 12.34 33.901C12.001 33.3247 11.4756 32.9066 10.7636 32.6467C10.063 32.3755 9.17028 32.2399 8.08544 32.2399H3.27147V54.2418H0V29.5617H8.08544C9.35109 29.5617 10.4811 29.6916 11.4756 29.9515C12.47 30.2001 13.3119 30.5957 14.0012 31.1381C14.7018 31.6692 15.2329 32.3472 15.5946 33.1721C15.9562 33.9971 16.137 34.9859 16.137 36.1385C16.137 37.1555 15.8771 38.0765 15.3573 38.9015C14.8374 39.7151 14.1142 40.3818 13.1876 40.9016C12.2722 41.4214 11.1987 41.7548 9.96696 41.9017L8.79737 42.6984ZM8.64481 54.2418H1.25435L3.10196 51.5805H8.64481C9.68445 51.5805 10.5659 51.3997 11.2891 51.0381C12.0236 50.6765 12.583 50.168 12.9672 49.5125C13.3514 48.8458 13.5435 48.0604 13.5435 47.1564C13.5435 46.2411 13.3797 45.45 13.052 44.7833C12.7243 44.1166 12.2101 43.6024 11.5095 43.2408C10.8088 42.8792 9.90481 42.6984 8.79737 42.6984H4.13595L4.16985 40.071H10.5433L11.2383 41.0203C12.4248 41.122 13.4305 41.461 14.2555 42.0373C15.0804 42.6023 15.7076 43.3256 16.137 44.207C16.5777 45.0884 16.7981 46.0603 16.7981 47.1225C16.7981 48.6594 16.459 49.9589 15.781 51.0211C15.1143 52.0721 14.1707 52.8744 12.9503 53.4281C11.7298 53.9706 10.2947 54.2418 8.64481 54.2418Z" fill="black"/>
<path d="M36.5964 51.5805V54.2418H24.2563V51.5805H36.5964ZM24.9004 29.5617V54.2418H21.629V29.5617H24.9004Z" fill="black"/>
<path d="M58.2254 41.122V42.6814C58.2254 44.5347 57.9937 46.1959 57.5304 47.6649C57.0671 49.134 56.4003 50.3827 55.5302 51.411C54.6601 52.4393 53.6148 53.2247 52.3943 53.7671C51.1852 54.3096 49.8292 54.5808 48.3262 54.5808C46.8684 54.5808 45.5293 54.3096 44.3089 53.7671C43.0998 53.2247 42.0488 52.4393 41.1561 51.411C40.2747 50.3827 39.591 49.134 39.1051 47.6649C38.6191 46.1959 38.3762 44.5347 38.3762 42.6814V41.122C38.3762 39.2687 38.6135 37.6132 39.0881 36.1555C39.574 34.6864 40.2577 33.4377 41.1391 32.4094C42.0206 31.3697 43.0659 30.5787 44.275 30.0363C45.4954 29.4939 46.8345 29.2227 48.2923 29.2227C49.7952 29.2227 51.1513 29.4939 52.3604 30.0363C53.5809 30.5787 54.6262 31.3697 55.4963 32.4094C56.3777 33.4377 57.0501 34.6864 57.5134 36.1555C57.988 37.6132 58.2254 39.2687 58.2254 41.122ZM54.9878 42.6814V41.0881C54.9878 39.619 54.8352 38.3195 54.5301 37.1894C54.2363 36.0594 53.8012 35.1102 53.2249 34.3417C52.6486 33.5733 51.9423 32.9913 51.1061 32.5958C50.2812 32.2003 49.3432 32.0026 48.2923 32.0026C47.2753 32.0026 46.3543 32.2003 45.5293 32.5958C44.7157 32.9913 44.0151 33.5733 43.4275 34.3417C42.8511 35.1102 42.4048 36.0594 42.0884 37.1894C41.772 38.3195 41.6138 39.619 41.6138 41.0881V42.6814C41.6138 44.1618 41.772 45.4726 42.0884 46.614C42.4048 47.744 42.8568 48.6989 43.4444 49.4786C44.0433 50.2471 44.7496 50.829 45.5632 51.2246C46.3882 51.6201 47.3092 51.8178 48.3262 51.8178C49.3884 51.8178 50.332 51.6201 51.1569 51.2246C51.9819 50.829 52.6768 50.2471 53.2419 49.4786C53.8182 48.6989 54.2533 47.744 54.5471 46.614C54.8409 45.4726 54.9878 44.1618 54.9878 42.6814Z" fill="black"/>
<path d="M78.0237 46.3936H81.2782C81.1087 47.9531 80.6623 49.3487 79.9391 50.5804C79.2159 51.8122 78.1932 52.7897 76.871 53.5129C75.5489 54.2248 73.899 54.5808 71.9214 54.5808C70.475 54.5808 69.1585 54.3096 67.9719 53.7671C66.7967 53.2247 65.7853 52.4563 64.9378 51.4619C64.0903 50.4561 63.4348 49.2526 62.9715 47.8514C62.5195 46.4388 62.2935 44.8681 62.2935 43.1391V40.6813C62.2935 38.9523 62.5195 37.3872 62.9715 35.986C63.4348 34.5734 64.0959 33.3643 64.9547 32.3585C65.8249 31.3528 66.8702 30.5787 68.0906 30.0363C69.3111 29.4939 70.6841 29.2227 72.2096 29.2227C74.0742 29.2227 75.6506 29.573 76.9388 30.2736C78.2271 30.9742 79.2272 31.9461 79.9391 33.1891C80.6623 34.4208 81.1087 35.8503 81.2782 37.4776H78.0237C77.8655 36.325 77.5717 35.3362 77.1422 34.5112C76.7128 33.675 76.1026 33.0309 75.3116 32.5789C74.5205 32.1269 73.4865 31.9009 72.2096 31.9009C71.1135 31.9009 70.1473 32.1099 69.3111 32.528C68.4861 32.9461 67.7911 33.5394 67.2261 34.3078C66.6724 35.0763 66.2543 35.9973 65.9718 37.0708C65.6893 38.1443 65.548 39.3365 65.548 40.6474V43.1391C65.548 44.3483 65.6723 45.4839 65.9209 46.5462C66.1808 47.6084 66.5707 48.5407 67.0905 49.343C67.6103 50.1454 68.2714 50.7782 69.0737 51.2415C69.8761 51.6935 70.8253 51.9195 71.9214 51.9195C73.3114 51.9195 74.4188 51.6992 75.2438 51.2585C76.0687 50.8177 76.6902 50.1849 77.1083 49.36C77.5378 48.5351 77.8429 47.5463 78.0237 46.3936Z" fill="black"/>
<path d="M89.0077 29.5617V54.2418H85.7362V29.5617H89.0077ZM103.907 29.5617L93.6521 41.0711L87.8889 47.0547L87.3465 43.5629L91.6859 38.7828L99.9747 29.5617H103.907ZM100.754 54.2418L91.6181 42.2068L93.5674 39.6134L104.653 54.2418H100.754Z" fill="black"/>
<path d="M124.078 43.8171H116.586V42.9018H124.078C125.74 42.9018 127.09 42.6306 128.13 42.0882C129.169 41.5345 129.926 40.7943 130.401 39.8676C130.887 38.941 131.13 37.9183 131.13 36.7996C131.13 35.6356 130.887 34.5791 130.401 33.6298C129.926 32.6693 129.169 31.9065 128.13 31.3415C127.09 30.7652 125.74 30.477 124.078 30.477H117.281V54.2418H116.366V29.5617H124.078C125.83 29.5617 127.293 29.8611 128.469 30.4601C129.655 31.059 130.548 31.9009 131.147 32.9857C131.746 34.0592 132.045 35.3192 132.045 36.7657C132.045 38.2121 131.746 39.4665 131.147 40.5287C130.559 41.5797 129.672 42.3933 128.486 42.9696C127.31 43.5346 125.841 43.8171 124.078 43.8171Z" fill="black"/>
<path d="M141.961 30.3414L133.045 54.2418H132.045L141.283 29.5617H142.165L141.961 30.3414ZM150.64 54.2418L141.724 30.3414L141.538 29.5617H142.402L151.64 54.2418H150.64ZM148.03 45.9529V46.8682H135.673V45.9529H148.03Z" fill="black"/>
<path d="M172.811 43.0544V51.5975C172.552 51.9704 172.06 52.3885 171.337 52.8518C170.625 53.3151 169.687 53.7219 168.523 54.0723C167.37 54.4113 165.992 54.5808 164.387 54.5808C162.986 54.5808 161.703 54.3209 160.539 53.801C159.375 53.2812 158.37 52.5411 157.522 51.5805C156.675 50.6087 156.019 49.4617 155.556 48.1395C155.104 46.8061 154.878 45.337 154.878 43.7324V39.6981C154.878 38.1387 155.098 36.7205 155.539 35.4435C155.991 34.1666 156.624 33.0648 157.437 32.1382C158.262 31.2002 159.24 30.4827 160.37 29.9854C161.5 29.4769 162.743 29.2227 164.099 29.2227C165.884 29.2227 167.393 29.5334 168.625 30.1549C169.856 30.7765 170.817 31.6183 171.506 32.6806C172.207 33.7315 172.631 34.9181 172.778 36.2402H171.862C171.693 35.1667 171.325 34.1666 170.76 33.24C170.195 32.3133 169.371 31.5675 168.286 31.0025C167.212 30.4261 165.817 30.138 164.099 30.138C162.845 30.138 161.703 30.3753 160.675 30.8499C159.658 31.3132 158.782 31.9687 158.048 32.8162C157.324 33.6637 156.765 34.6695 156.369 35.8334C155.985 36.9973 155.793 38.2743 155.793 39.6642V43.7324C155.793 45.1901 155.991 46.5236 156.386 47.7327C156.793 48.9419 157.375 49.9928 158.132 50.8855C158.889 51.767 159.793 52.4506 160.844 52.9366C161.907 53.4225 163.087 53.6654 164.387 53.6654C165.732 53.6654 166.918 53.5298 167.947 53.2586C168.986 52.9761 169.839 52.6428 170.506 52.2585C171.184 51.863 171.648 51.5014 171.896 51.1737V43.9866H164.353V43.0544H172.811Z" fill="black"/>
<path d="M194.271 53.3264V54.2418H179.575V53.3264H194.271ZM180.168 29.5617V54.2418H179.253V29.5617H180.168ZM192.542 41.0881V42.0034H179.575V41.0881H192.542ZM194.271 29.5617V30.477H179.575V29.5617H194.271Z" fill="black"/>
</svg>
